# xmcd
#
# Track frame offsets: 
#        150
#        14387
#        30342
#        47492
#
# Disc length: 965 seconds
#
# Revision: 2
# Processed by: cddbd v1.5PL3 Copyright (c) Steve Scherf et al.
# Submitted via: ExactAudioCopy v0.95a5
#
DISCID=2103c304
DTITLE=Sheryl Crow - Hard To Make A Stand
DYEAR=1997
DGENRE=Rock
TTITLE0=Hard To Make A Stand
TTITLE1=Hard To Make A Stand (Alternate Version)
TTITLE2=Hard To Make A Stand (Live BBC Simon Mayo Session)
TTITLE3=In Need
EXTD=(c)1997 A&M Records Inc.\nupc 731458214724\nKatalog: 582147-2
EXTT0=
EXTT1=
EXTT2=
EXTT3=
PLAYORDER=
